<?xml version="1.0" encoding="UTF-8"?>
<svg width="800px" height="200px" viewBox="0 0 800 200" xmlns="http://www.w3.org/2000/svg">
  <defs>
    <linearGradient id="iconGradient" x1="0" y1="0" x2="1" y2="1">
      <stop offset="0%" stop-color="#7C3AED" />
      <stop offset="100%" stop-color="#F472B6" />
    </linearGradient>
  </defs>
  
  <!-- Icon -->
  <g transform="translate(50, 50) scale(1.2)">
    <path d="M38.8,1.2C24.1,1.2,12.2,13.1,12.2,27.8s11.9,26.6,26.6,26.6h13.3c3.7,0,6.7-3,6.7-6.7V34.4c0-3.7-3-6.7-6.7-6.7H38.8 c-5.5,0-10-4.5-10-10s4.5-10,10-10h26.6c18.4,0,33.3,14.9,33.3,33.3S83.8,77.8,65.4,77.8H52.1c-3.7,0-6.7,3-6.7,6.7v13.3 c0,3.7,3,6.7,6.7,6.7h13.3C88.5,104.4,107,86,107,61.2S88.5,17.9,65.4,17.9H38.8c-3.7,0-6.7-3-6.7-6.7V4.5 C32.2,2.7,35.3,1.2,38.8,1.2z" fill="url(#iconGradient)"/>
  </g>

  <!-- Text: LinkBio -->
  <g transform="translate(220, 45)">
    <text x="0" y="100" font-family="-apple-system, BlinkMacSystemFont, 'Segoe UI', Roboto, Helvetica, Arial, sans-serif" font-size="100" font-weight="600" fill="#1E293B">
      Link<tspan font-weight="400">Bio</tspan>
    </text>
  </g>
</svg>
